<svg xmlns="http://www.w3.org/2000/svg" xmlns:xlink="http://www.w3.org/1999/xlink" width="1366" zoomAndPan="magnify" viewBox="0 0 1024.5 370.499989" height="494" preserveAspectRatio="xMidYMid meet" version="1.0"><defs><g/><clipPath id="8eb1f02781"><path d="M 49 0 L 620 0 L 620 370 L 49 370 Z M 49 0 " clip-rule="nonzero"/></clipPath><clipPath id="dc59e1bf01"><path d="M 49.195312 -70.902344 L 178.96875 -161.199219 L 619.722656 472.246094 L 489.945312 562.546875 Z M 49.195312 -70.902344 " clip-rule="nonzero"/></clipPath><clipPath id="9a8c1f968f"><path d="M 571.050781 200.679688 L 588.246094 200.679688 L 588.246094 370 L 571.050781 370 Z M 571.050781 200.679688 " clip-rule="nonzero"/></clipPath><clipPath id="08a4f3032f"><path d="M 485.664062 116.828125 L 501.847656 116.828125 L 501.847656 359.96875 L 485.664062 359.96875 Z M 485.664062 116.828125 " clip-rule="nonzero"/></clipPath><clipPath id="f1753435d1"><path d="M 480.808594 112.296875 L 496.992188 112.296875 L 496.992188 280.347656 L 480.808594 280.347656 Z M 480.808594 112.296875 " clip-rule="nonzero"/></clipPath></defs><g fill="#7839ee" fill-opacity="1"><g transform="translate(26.469377, 300.638419)"><g><path d="M 19.671875 -123.96875 C 19.671875 -165.945312 32.265625 -197.691406 57.453125 -219.203125 C 82.640625 -240.710938 119.375 -251.46875 167.65625 -251.46875 C 193.625 -251.46875 214.9375 -250.15625 231.59375 -247.53125 C 248.257812 -244.914062 260.660156 -242.296875 268.796875 -239.671875 C 276.929688 -237.046875 281 -235.734375 281 -235.734375 L 281 -172.375 C 281 -172.375 279.6875 -173.816406 277.0625 -176.703125 C 274.4375 -179.585938 269.972656 -183.0625 263.671875 -187.125 C 257.378906 -191.195312 248.722656 -194.804688 237.703125 -197.953125 C 229.828125 -200.316406 220.835938 -202.21875 210.734375 -203.65625 C 200.640625 -205.101562 188.898438 -205.828125 175.515625 -205.828125 C 144.554688 -205.828125 121.335938 -198.675781 105.859375 -184.375 C 90.378906 -170.070312 82.640625 -149.9375 82.640625 -123.96875 C 82.640625 -97.988281 90.378906 -77.847656 105.859375 -63.546875 C 121.335938 -49.253906 144.554688 -42.109375 175.515625 -42.109375 C 189.421875 -42.109375 201.753906 -42.828125 212.515625 -44.265625 C 223.273438 -45.710938 232.585938 -47.75 240.453125 -50.375 C 250.691406 -53.78125 258.757812 -57.382812 264.65625 -61.1875 C 270.5625 -65 274.757812 -68.347656 277.25 -71.234375 C 279.75 -74.117188 281 -75.5625 281 -75.5625 L 281 -12.203125 C 281 -12.203125 276.929688 -10.890625 268.796875 -8.265625 C 260.660156 -5.640625 248.257812 -3.015625 231.59375 -0.390625 C 214.9375 2.234375 193.625 3.546875 167.65625 3.546875 C 119.375 3.546875 82.640625 -7.207031 57.453125 -28.71875 C 32.265625 -50.238281 19.671875 -81.988281 19.671875 -123.96875 Z M 19.671875 -123.96875 "/></g></g></g><g clip-path="url(#8eb1f02781)"><g clip-path="url(#dc59e1bf01)"><path fill="#ffffff" d="M 49.195312 -70.902344 L 178.96875 -161.199219 L 619.878906 472.472656 L 490.101562 562.769531 Z M 49.195312 -70.902344 " fill-opacity="1" fill-rule="nonzero"/></g></g><g fill="#7839ee" fill-opacity="1"><g transform="translate(396.984483, 20.8499)"><g><path d="M -4.78125 9.03125 L -4.78125 79.671875 C -4.78125 79.671875 -6.285156 77.8125 -9.296875 74.09375 C -12.304688 70.375 -17.441406 66.566406 -24.703125 62.671875 C -31.960938 58.773438 -41.785156 56.828125 -54.171875 56.828125 C -67.628906 56.828125 -77.988281 60.28125 -85.25 67.1875 C -92.507812 74.09375 -96.140625 83.742188 -96.140625 96.140625 L -96.140625 271.9375 C -96.140625 286.457031 -94.898438 297.613281 -92.421875 305.40625 C -89.941406 313.195312 -85.78125 319.21875 -79.9375 323.46875 C -74.09375 327.71875 -66.035156 331.4375 -55.765625 334.625 L -220.421875 334.625 C -210.148438 331.4375 -202.09375 327.71875 -196.25 323.46875 C -190.414062 319.21875 -186.257812 313.195312 -183.78125 305.40625 C -181.300781 297.613281 -180.0625 286.457031 -180.0625 271.9375 L -180.0625 81.265625 C -180.0625 53.640625 -171.648438 32.390625 -154.828125 17.515625 C -138.003906 2.648438 -115.429688 -4.78125 -87.109375 -4.78125 C -66.566406 -4.78125 -50.273438 -3.628906 -38.234375 -1.328125 C -26.203125 0.972656 -17.617188 3.273438 -12.484375 5.578125 C -7.347656 7.878906 -4.78125 9.03125 -4.78125 9.03125 Z M -4.78125 9.03125 "/></g></g></g><g clip-path="url(#9a8c1f968f)"><path fill="#ffffff" d="M 571.050781 200.679688 L 588.246094 200.679688 L 588.246094 407.285156 L 571.050781 407.285156 Z M 571.050781 200.679688 " fill-opacity="1" fill-rule="nonzero"/></g><g clip-path="url(#08a4f3032f)"><path fill="#ffffff" d="M 485.664062 116.828125 L 501.847656 116.828125 L 501.847656 359.957031 L 485.664062 359.957031 Z M 485.664062 116.828125 " fill-opacity="1" fill-rule="nonzero"/></g><g clip-path="url(#f1753435d1)"><path fill="#ffffff" d="M 480.808594 112.296875 L 496.992188 112.296875 L 496.992188 280.324219 L 480.808594 280.324219 Z M 480.808594 112.296875 " fill-opacity="1" fill-rule="nonzero"/></g><g fill="#545454" fill-opacity="1"><g transform="translate(408.943711, 187.044436)"><g><path d="M 22.296875 -17.59375 L 22.296875 -39.75 C 22.296875 -41.988281 22.054688 -43.628906 21.578125 -44.671875 C 21.109375 -45.710938 20.5625 -46.457031 19.9375 -46.90625 C 19.320312 -47.351562 18.773438 -47.773438 18.296875 -48.171875 C 17.828125 -48.578125 17.59375 -49.222656 17.59375 -50.109375 C 17.59375 -50.910156 17.890625 -51.457031 18.484375 -51.75 C 19.085938 -52.050781 20.160156 -52.203125 21.703125 -52.203125 L 33.640625 -52.203125 C 35.078125 -52.203125 36.117188 -52.050781 36.765625 -51.75 C 37.410156 -51.457031 37.734375 -50.910156 37.734375 -50.109375 C 37.734375 -49.222656 37.484375 -48.578125 36.984375 -48.171875 C 36.492188 -47.773438 35.9375 -47.351562 35.3125 -46.90625 C 34.6875 -46.457031 34.125 -45.710938 33.625 -44.671875 C 33.132812 -43.628906 32.890625 -41.988281 32.890625 -39.75 L 32.96875 -22 C 32.96875 -18.664062 32.726562 -15.609375 32.25 -12.828125 C 31.78125 -10.046875 30.921875 -7.644531 29.671875 -5.625 C 28.429688 -3.613281 26.664062 -2.0625 24.375 -0.96875 C 22.09375 0.125 19.113281 0.671875 15.4375 0.671875 C 12.207031 0.671875 9.5 0.0625 7.3125 -1.15625 C 5.125 -2.375 3.484375 -3.925781 2.390625 -5.8125 C 1.296875 -7.707031 0.75 -9.722656 0.75 -11.859375 C 0.75 -13.597656 1.234375 -14.898438 2.203125 -15.765625 C 3.171875 -16.640625 4.273438 -17.078125 5.515625 -17.078125 C 7.054688 -17.078125 8.222656 -16.601562 9.015625 -15.65625 C 9.816406 -14.71875 10.316406 -13.601562 10.515625 -12.3125 C 10.910156 -9.96875 11.519531 -8.085938 12.34375 -6.671875 C 13.164062 -5.253906 14.472656 -4.546875 16.265625 -4.546875 C 18.347656 -4.546875 19.875 -5.6875 20.84375 -7.96875 C 21.8125 -10.257812 22.296875 -13.46875 22.296875 -17.59375 Z M 22.296875 -17.59375 "/></g></g></g><g fill="#545454" fill-opacity="1"><g transform="translate(448.168144, 187.044436)"><g><path d="M 27.59375 0.75 C 22.875 0.75 18.660156 -0.304688 14.953125 -2.421875 C 11.242188 -4.535156 8.320312 -7.46875 6.1875 -11.21875 C 4.050781 -14.976562 2.984375 -19.269531 2.984375 -24.09375 C 2.984375 -28.070312 3.675781 -31.8125 5.0625 -35.3125 C 6.457031 -38.820312 8.398438 -41.890625 10.890625 -44.515625 C 13.378906 -47.148438 16.3125 -49.210938 19.6875 -50.703125 C 23.070312 -52.203125 26.75 -52.953125 30.71875 -52.953125 C 35.75 -52.953125 40.101562 -51.832031 43.78125 -49.59375 C 47.457031 -47.351562 50.300781 -44.332031 52.3125 -40.53125 C 54.332031 -36.726562 55.34375 -32.414062 55.34375 -27.59375 C 55.34375 -23.5625 54.65625 -19.832031 53.28125 -16.40625 C 51.914062 -12.976562 49.988281 -9.96875 47.5 -7.375 C 45.019531 -4.789062 42.085938 -2.789062 38.703125 -1.375 C 35.328125 0.0390625 31.625 0.75 27.59375 0.75 Z M 31.46875 -5.140625 C 34.65625 -5.140625 37.242188 -5.894531 39.234375 -7.40625 C 41.222656 -8.925781 42.6875 -10.96875 43.625 -13.53125 C 44.570312 -16.09375 45.046875 -18.890625 45.046875 -21.921875 C 45.046875 -25.054688 44.632812 -28.148438 43.8125 -31.203125 C 42.988281 -34.265625 41.804688 -37.035156 40.265625 -39.515625 C 38.722656 -42.003906 36.859375 -43.984375 34.671875 -45.453125 C 32.484375 -46.921875 30 -47.65625 27.21875 -47.65625 C 24.132812 -47.65625 21.546875 -46.859375 19.453125 -45.265625 C 17.367188 -43.671875 15.816406 -41.609375 14.796875 -39.078125 C 13.785156 -36.546875 13.28125 -33.8125 13.28125 -30.875 C 13.28125 -27.644531 13.703125 -24.5 14.546875 -21.4375 C 15.390625 -18.382812 16.59375 -15.625 18.15625 -13.15625 C 19.726562 -10.695312 21.628906 -8.742188 23.859375 -7.296875 C 26.097656 -5.859375 28.632812 -5.140625 31.46875 -5.140625 Z M 31.46875 -5.140625 "/></g></g></g><g fill="#545454" fill-opacity="1"><g transform="translate(506.63194, 187.044436)"><g><path d="M 44.890625 -52.125 L 51.453125 -52.125 C 52.742188 -52.125 53.648438 -52 54.171875 -51.75 C 54.703125 -51.507812 54.96875 -50.988281 54.96875 -50.1875 C 54.96875 -49.59375 54.765625 -49.097656 54.359375 -48.703125 C 53.960938 -48.304688 53.488281 -47.90625 52.9375 -47.5 C 52.394531 -47.101562 51.925781 -46.554688 51.53125 -45.859375 C 51.132812 -45.171875 50.9375 -44.175781 50.9375 -42.875 L 50.9375 -3.125 C 50.9375 -1.988281 50.722656 -1.179688 50.296875 -0.703125 C 49.878906 -0.234375 49.195312 0 48.25 0 C 47.300781 0 46.613281 -0.222656 46.1875 -0.671875 C 45.769531 -1.117188 45.5625 -1.664062 45.5625 -2.3125 C 45.5625 -3.207031 45.375 -4.023438 45 -4.765625 C 44.632812 -5.515625 44.050781 -6.3125 43.25 -7.15625 L 12.234375 -38.9375 L 12.375 -9.328125 C 12.375 -8.078125 12.570312 -7.09375 12.96875 -6.375 C 13.375 -5.65625 13.847656 -5.097656 14.390625 -4.703125 C 14.941406 -4.304688 15.414062 -3.90625 15.8125 -3.5 C 16.207031 -3.101562 16.40625 -2.582031 16.40625 -1.9375 C 16.40625 -1.144531 16.128906 -0.632812 15.578125 -0.40625 C 15.035156 -0.1875 14.171875 -0.078125 12.984375 -0.078125 L 6.40625 -0.078125 C 5.164062 -0.078125 4.269531 -0.210938 3.71875 -0.484375 C 3.175781 -0.753906 2.90625 -1.265625 2.90625 -2.015625 C 2.90625 -2.609375 3.101562 -3.101562 3.5 -3.5 C 3.90625 -3.90625 4.378906 -4.304688 4.921875 -4.703125 C 5.472656 -5.097656 5.945312 -5.65625 6.34375 -6.375 C 6.738281 -7.09375 6.9375 -8.078125 6.9375 -9.328125 L 6.9375 -39.53125 C 6.9375 -41.46875 6.773438 -42.957031 6.453125 -44 C 6.128906 -45.039062 5.71875 -45.8125 5.21875 -46.3125 C 4.71875 -46.8125 4.21875 -47.195312 3.71875 -47.46875 C 3.226562 -47.738281 2.820312 -48.046875 2.5 -48.390625 C 2.175781 -48.742188 2.015625 -49.316406 2.015625 -50.109375 C 2.015625 -50.960938 2.335938 -51.523438 2.984375 -51.796875 C 3.628906 -52.066406 4.695312 -52.203125 6.1875 -52.203125 L 12.15625 -52.203125 C 12.945312 -52.203125 13.601562 -52.039062 14.125 -51.71875 C 14.65625 -51.394531 15.191406 -50.960938 15.734375 -50.421875 L 45.5 -19.609375 L 45.5 -42.875 C 45.5 -44.175781 45.285156 -45.171875 44.859375 -45.859375 C 44.429688 -46.554688 43.957031 -47.101562 43.4375 -47.5 C 42.914062 -47.90625 42.441406 -48.304688 42.015625 -48.703125 C 41.597656 -49.097656 41.390625 -49.617188 41.390625 -50.265625 C 41.390625 -51.054688 41.675781 -51.5625 42.25 -51.78125 C 42.820312 -52.007812 43.703125 -52.125 44.890625 -52.125 Z M 44.890625 -52.125 "/></g></g></g><g fill="#545454" fill-opacity="1"><g transform="translate(563.604306, 187.044436)"><g><path d="M 13.5 -12.75 L 12.15625 -9.546875 C 11.5625 -8.109375 11.328125 -7.015625 11.453125 -6.265625 C 11.578125 -5.515625 11.847656 -4.953125 12.265625 -4.578125 C 12.691406 -4.210938 13.101562 -3.867188 13.5 -3.546875 C 13.894531 -3.222656 14.09375 -2.710938 14.09375 -2.015625 C 14.09375 -1.222656 13.769531 -0.703125 13.125 -0.453125 C 12.476562 -0.203125 11.660156 -0.078125 10.671875 -0.078125 L 4.03125 -0.078125 C 2.832031 -0.078125 1.882812 -0.203125 1.1875 -0.453125 C 0.5 -0.703125 0.15625 -1.195312 0.15625 -1.9375 C 0.15625 -2.632812 0.363281 -3.171875 0.78125 -3.546875 C 1.207031 -3.921875 1.753906 -4.304688 2.421875 -4.703125 C 3.097656 -5.097656 3.796875 -5.65625 4.515625 -6.375 C 5.234375 -7.09375 5.863281 -8.148438 6.40625 -9.546875 L 19.84375 -42.953125 C 20.289062 -44.148438 20.425781 -45.070312 20.25 -45.71875 C 20.070312 -46.363281 19.742188 -46.882812 19.265625 -47.28125 C 18.796875 -47.675781 18.347656 -48.082031 17.921875 -48.5 C 17.503906 -48.925781 17.296875 -49.488281 17.296875 -50.1875 C 17.296875 -51.53125 18.09375 -52.203125 19.6875 -52.203125 L 28.109375 -52.203125 C 29.453125 -52.203125 30.375 -51.582031 30.875 -50.34375 L 46.90625 -9.84375 C 47.5 -8.300781 48.117188 -7.15625 48.765625 -6.40625 C 49.421875 -5.664062 50.019531 -5.109375 50.5625 -4.734375 C 51.113281 -4.359375 51.5625 -4.007812 51.90625 -3.6875 C 52.25 -3.363281 52.421875 -2.851562 52.421875 -2.15625 C 52.421875 -1.363281 52.125 -0.804688 51.53125 -0.484375 C 50.9375 -0.160156 49.914062 0 48.46875 0 L 36.46875 0 C 35.269531 0 34.375 -0.144531 33.78125 -0.4375 C 33.1875 -0.738281 32.890625 -1.289062 32.890625 -2.09375 C 32.890625 -2.832031 33.125 -3.375 33.59375 -3.71875 C 34.070312 -4.070312 34.570312 -4.445312 35.09375 -4.84375 C 35.613281 -5.238281 35.957031 -5.796875 36.125 -6.515625 C 36.300781 -7.242188 36.117188 -8.351562 35.578125 -9.84375 L 34.453125 -12.53125 C 34.253906 -13.125 34.03125 -13.566406 33.78125 -13.859375 C 33.53125 -14.160156 33.09375 -14.382812 32.46875 -14.53125 C 31.851562 -14.6875 30.882812 -14.773438 29.5625 -14.796875 C 28.25 -14.828125 26.398438 -14.84375 24.015625 -14.84375 C 21.578125 -14.84375 19.6875 -14.828125 18.34375 -14.796875 C 17 -14.773438 16.015625 -14.703125 15.390625 -14.578125 C 14.773438 -14.453125 14.351562 -14.253906 14.125 -13.984375 C 13.90625 -13.710938 13.695312 -13.300781 13.5 -12.75 Z M 24.09375 -19.546875 C 26.625 -19.546875 28.410156 -19.566406 29.453125 -19.609375 C 30.503906 -19.660156 31.078125 -19.832031 31.171875 -20.125 C 31.273438 -20.425781 31.203125 -20.898438 30.953125 -21.546875 L 24.015625 -39.375 L 17.078125 -21.78125 C 16.773438 -21.03125 16.671875 -20.492188 16.765625 -20.171875 C 16.867188 -19.847656 17.457031 -19.660156 18.53125 -19.609375 C 19.601562 -19.566406 21.457031 -19.546875 24.09375 -19.546875 Z M 24.09375 -19.546875 "/></g></g></g><g fill="#545454" fill-opacity="1"><g transform="translate(616.997258, 187.044436)"><g><path d="M 29.453125 -43.921875 L 29.453125 -12.453125 C 29.453125 -10.210938 29.6875 -8.570312 30.15625 -7.53125 C 30.632812 -6.488281 31.195312 -5.742188 31.84375 -5.296875 C 32.488281 -4.847656 33.046875 -4.425781 33.515625 -4.03125 C 33.992188 -3.632812 34.234375 -2.988281 34.234375 -2.09375 C 34.234375 -1.289062 33.929688 -0.738281 33.328125 -0.4375 C 32.734375 -0.144531 31.644531 0 30.0625 0 L 18.203125 0 C 16.703125 0 15.628906 -0.144531 14.984375 -0.4375 C 14.335938 -0.738281 14.015625 -1.289062 14.015625 -2.09375 C 14.015625 -2.988281 14.265625 -3.632812 14.765625 -4.03125 C 15.265625 -4.425781 15.835938 -4.847656 16.484375 -5.296875 C 17.128906 -5.742188 17.695312 -6.488281 18.1875 -7.53125 C 18.6875 -8.570312 18.9375 -10.210938 18.9375 -12.453125 L 18.9375 -43.921875 C 18.9375 -46.109375 17.820312 -47.203125 15.59375 -47.203125 C 13.945312 -47.203125 12.625 -46.914062 11.625 -46.34375 C 10.632812 -45.78125 9.765625 -44.925781 9.015625 -43.78125 C 8.273438 -42.632812 7.457031 -41.21875 6.5625 -39.53125 C 5.664062 -37.6875 4.742188 -36.765625 3.796875 -36.765625 C 3.003906 -36.765625 2.484375 -37.0625 2.234375 -37.65625 C 1.984375 -38.257812 1.882812 -39.054688 1.9375 -40.046875 C 2.039062 -42.085938 2.175781 -43.835938 2.34375 -45.296875 C 2.519531 -46.765625 2.757812 -48.023438 3.0625 -49.078125 C 3.351562 -50.210938 3.894531 -51.015625 4.6875 -51.484375 C 5.488281 -51.960938 7.035156 -52.203125 9.328125 -52.203125 L 39.078125 -52.203125 C 41.367188 -52.203125 42.910156 -51.960938 43.703125 -51.484375 C 44.492188 -51.015625 45.015625 -50.234375 45.265625 -49.140625 C 45.566406 -48.046875 45.816406 -46.765625 46.015625 -45.296875 C 46.210938 -43.835938 46.335938 -42.085938 46.390625 -40.046875 C 46.441406 -39.097656 46.351562 -38.3125 46.125 -37.6875 C 45.90625 -37.070312 45.394531 -36.765625 44.59375 -36.765625 C 44.050781 -36.765625 43.566406 -36.988281 43.140625 -37.4375 C 42.722656 -37.882812 42.265625 -38.582031 41.765625 -39.53125 C 40.921875 -41.269531 40.113281 -42.707031 39.34375 -43.84375 C 38.570312 -44.988281 37.6875 -45.847656 36.6875 -46.421875 C 35.695312 -46.992188 34.378906 -47.28125 32.734375 -47.28125 C 30.546875 -47.28125 29.453125 -46.160156 29.453125 -43.921875 Z M 29.453125 -43.921875 "/></g></g></g><g fill="#545454" fill-opacity="1"><g transform="translate(665.319356, 187.044436)"><g><path d="M 52.5 -39.75 L 52.5 -12.453125 C 52.5 -10.210938 52.734375 -8.570312 53.203125 -7.53125 C 53.679688 -6.488281 54.242188 -5.742188 54.890625 -5.296875 C 55.535156 -4.847656 56.09375 -4.425781 56.5625 -4.03125 C 57.039062 -3.632812 57.28125 -2.988281 57.28125 -2.09375 C 57.28125 -1.289062 56.976562 -0.738281 56.375 -0.4375 C 55.78125 -0.144531 54.6875 0 53.09375 0 L 41.234375 0 C 39.796875 0 38.753906 -0.144531 38.109375 -0.4375 C 37.460938 -0.738281 37.140625 -1.289062 37.140625 -2.09375 C 37.140625 -2.988281 37.382812 -3.632812 37.875 -4.03125 C 38.375 -4.425781 38.9375 -4.847656 39.5625 -5.296875 C 40.1875 -5.742188 40.742188 -6.488281 41.234375 -7.53125 C 41.734375 -8.570312 41.984375 -10.210938 41.984375 -12.453125 L 41.984375 -22.078125 C 41.984375 -22.867188 41.910156 -23.488281 41.765625 -23.9375 C 41.617188 -24.382812 41.195312 -24.691406 40.5 -24.859375 C 39.800781 -25.035156 38.617188 -25.148438 36.953125 -25.203125 C 35.285156 -25.253906 32.960938 -25.28125 29.984375 -25.28125 C 26.898438 -25.28125 24.507812 -25.253906 22.8125 -25.203125 C 21.125 -25.148438 19.921875 -25.035156 19.203125 -24.859375 C 18.484375 -24.691406 18.046875 -24.382812 17.890625 -23.9375 C 17.742188 -23.488281 17.671875 -22.867188 17.671875 -22.078125 L 17.671875 -12.453125 C 17.671875 -10.210938 17.90625 -8.570312 18.375 -7.53125 C 18.851562 -6.488281 19.398438 -5.742188 20.015625 -5.296875 C 20.640625 -4.847656 21.1875 -4.425781 21.65625 -4.03125 C 22.132812 -3.632812 22.375 -2.988281 22.375 -2.09375 C 22.375 -1.289062 22.070312 -0.738281 21.46875 -0.4375 C 20.875 -0.144531 19.804688 0 18.265625 0 L 6.40625 0 C 4.914062 0 3.847656 -0.144531 3.203125 -0.4375 C 2.554688 -0.738281 2.234375 -1.289062 2.234375 -2.09375 C 2.234375 -2.988281 2.484375 -3.632812 2.984375 -4.03125 C 3.484375 -4.425781 4.054688 -4.847656 4.703125 -5.296875 C 5.347656 -5.742188 5.914062 -6.488281 6.40625 -7.53125 C 6.90625 -8.570312 7.15625 -10.210938 7.15625 -12.453125 L 7.15625 -39.75 C 7.15625 -41.988281 6.921875 -43.628906 6.453125 -44.671875 C 5.984375 -45.710938 5.421875 -46.457031 4.765625 -46.90625 C 4.117188 -47.351562 3.5625 -47.773438 3.09375 -48.171875 C 2.625 -48.578125 2.390625 -49.222656 2.390625 -50.109375 C 2.390625 -50.910156 2.695312 -51.457031 3.3125 -51.75 C 3.9375 -52.050781 5.019531 -52.203125 6.5625 -52.203125 L 18.421875 -52.203125 C 19.859375 -52.203125 20.898438 -52.050781 21.546875 -51.75 C 22.191406 -51.457031 22.515625 -50.910156 22.515625 -50.109375 C 22.515625 -49.222656 22.265625 -48.578125 21.765625 -48.171875 C 21.273438 -47.773438 20.71875 -47.351562 20.09375 -46.90625 C 19.476562 -46.457031 18.921875 -45.710938 18.421875 -44.671875 C 17.921875 -43.628906 17.671875 -41.988281 17.671875 -39.75 L 17.671875 -33.265625 C 17.671875 -32.460938 17.742188 -31.835938 17.890625 -31.390625 C 18.046875 -30.941406 18.484375 -30.628906 19.203125 -30.453125 C 19.921875 -30.285156 21.140625 -30.175781 22.859375 -30.125 C 24.578125 -30.082031 26.976562 -30.0625 30.0625 -30.0625 C 33.039062 -30.0625 35.347656 -30.082031 36.984375 -30.125 C 38.628906 -30.175781 39.800781 -30.285156 40.5 -30.453125 C 41.195312 -30.628906 41.617188 -30.941406 41.765625 -31.390625 C 41.910156 -31.835938 41.984375 -32.460938 41.984375 -33.265625 L 41.984375 -39.75 C 41.984375 -41.988281 41.75 -43.628906 41.28125 -44.671875 C 40.8125 -45.710938 40.265625 -46.457031 39.640625 -46.90625 C 39.015625 -47.351562 38.460938 -47.773438 37.984375 -48.171875 C 37.515625 -48.578125 37.28125 -49.222656 37.28125 -50.109375 C 37.28125 -50.910156 37.578125 -51.457031 38.171875 -51.75 C 38.773438 -52.050781 39.847656 -52.203125 41.390625 -52.203125 L 53.25 -52.203125 C 54.738281 -52.203125 55.804688 -52.050781 56.453125 -51.75 C 57.097656 -51.457031 57.421875 -50.910156 57.421875 -50.109375 C 57.421875 -49.222656 57.171875 -48.578125 56.671875 -48.171875 C 56.179688 -47.773438 55.613281 -47.351562 54.96875 -46.90625 C 54.320312 -46.457031 53.75 -45.710938 53.25 -44.671875 C 52.75 -43.628906 52.5 -41.988281 52.5 -39.75 Z M 52.5 -39.75 "/></g></g></g><g fill="#545454" fill-opacity="1"><g transform="translate(724.976293, 187.044436)"><g><path d="M 13.5 -12.75 L 12.15625 -9.546875 C 11.5625 -8.109375 11.328125 -7.015625 11.453125 -6.265625 C 11.578125 -5.515625 11.847656 -4.953125 12.265625 -4.578125 C 12.691406 -4.210938 13.101562 -3.867188 13.5 -3.546875 C 13.894531 -3.222656 14.09375 -2.710938 14.09375 -2.015625 C 14.09375 -1.222656 13.769531 -0.703125 13.125 -0.453125 C 12.476562 -0.203125 11.660156 -0.078125 10.671875 -0.078125 L 4.03125 -0.078125 C 2.832031 -0.078125 1.882812 -0.203125 1.1875 -0.453125 C 0.5 -0.703125 0.15625 -1.195312 0.15625 -1.9375 C 0.15625 -2.632812 0.363281 -3.171875 0.78125 -3.546875 C 1.207031 -3.921875 1.753906 -4.304688 2.421875 -4.703125 C 3.097656 -5.097656 3.796875 -5.65625 4.515625 -6.375 C 5.234375 -7.09375 5.863281 -8.148438 6.40625 -9.546875 L 19.84375 -42.953125 C 20.289062 -44.148438 20.425781 -45.070312 20.25 -45.71875 C 20.070312 -46.363281 19.742188 -46.882812 19.265625 -47.28125 C 18.796875 -47.675781 18.347656 -48.082031 17.921875 -48.5 C 17.503906 -48.925781 17.296875 -49.488281 17.296875 -50.1875 C 17.296875 -51.53125 18.09375 -52.203125 19.6875 -52.203125 L 28.109375 -52.203125 C 29.453125 -52.203125 30.375 -51.582031 30.875 -50.34375 L 46.90625 -9.84375 C 47.5 -8.300781 48.117188 -7.15625 48.765625 -6.40625 C 49.421875 -5.664062 50.019531 -5.109375 50.5625 -4.734375 C 51.113281 -4.359375 51.5625 -4.007812 51.90625 -3.6875 C 52.25 -3.363281 52.421875 -2.851562 52.421875 -2.15625 C 52.421875 -1.363281 52.125 -0.804688 51.53125 -0.484375 C 50.9375 -0.160156 49.914062 0 48.46875 0 L 36.46875 0 C 35.269531 0 34.375 -0.144531 33.78125 -0.4375 C 33.1875 -0.738281 32.890625 -1.289062 32.890625 -2.09375 C 32.890625 -2.832031 33.125 -3.375 33.59375 -3.71875 C 34.070312 -4.070312 34.570312 -4.445312 35.09375 -4.84375 C 35.613281 -5.238281 35.957031 -5.796875 36.125 -6.515625 C 36.300781 -7.242188 36.117188 -8.351562 35.578125 -9.84375 L 34.453125 -12.53125 C 34.253906 -13.125 34.03125 -13.566406 33.78125 -13.859375 C 33.53125 -14.160156 33.09375 -14.382812 32.46875 -14.53125 C 31.851562 -14.6875 30.882812 -14.773438 29.5625 -14.796875 C 28.25 -14.828125 26.398438 -14.84375 24.015625 -14.84375 C 21.578125 -14.84375 19.6875 -14.828125 18.34375 -14.796875 C 17 -14.773438 16.015625 -14.703125 15.390625 -14.578125 C 14.773438 -14.453125 14.351562 -14.253906 14.125 -13.984375 C 13.90625 -13.710938 13.695312 -13.300781 13.5 -12.75 Z M 24.09375 -19.546875 C 26.625 -19.546875 28.410156 -19.566406 29.453125 -19.609375 C 30.503906 -19.660156 31.078125 -19.832031 31.171875 -20.125 C 31.273438 -20.425781 31.203125 -20.898438 30.953125 -21.546875 L 24.015625 -39.375 L 17.078125 -21.78125 C 16.773438 -21.03125 16.671875 -20.492188 16.765625 -20.171875 C 16.867188 -19.847656 17.457031 -19.660156 18.53125 -19.609375 C 19.601562 -19.566406 21.457031 -19.546875 24.09375 -19.546875 Z M 24.09375 -19.546875 "/></g></g></g><g fill="#545454" fill-opacity="1"><g transform="translate(778.369245, 187.044436)"><g><path d="M 44.890625 -52.125 L 51.453125 -52.125 C 52.742188 -52.125 53.648438 -52 54.171875 -51.75 C 54.703125 -51.507812 54.96875 -50.988281 54.96875 -50.1875 C 54.96875 -49.59375 54.765625 -49.097656 54.359375 -48.703125 C 53.960938 -48.304688 53.488281 -47.90625 52.9375 -47.5 C 52.394531 -47.101562 51.925781 -46.554688 51.53125 -45.859375 C 51.132812 -45.171875 50.9375 -44.175781 50.9375 -42.875 L 50.9375 -3.125 C 50.9375 -1.988281 50.722656 -1.179688 50.296875 -0.703125 C 49.878906 -0.234375 49.195312 0 48.25 0 C 47.300781 0 46.613281 -0.222656 46.1875 -0.671875 C 45.769531 -1.117188 45.5625 -1.664062 45.5625 -2.3125 C 45.5625 -3.207031 45.375 -4.023438 45 -4.765625 C 44.632812 -5.515625 44.050781 -6.3125 43.25 -7.15625 L 12.234375 -38.9375 L 12.375 -9.328125 C 12.375 -8.078125 12.570312 -7.09375 12.96875 -6.375 C 13.375 -5.65625 13.847656 -5.097656 14.390625 -4.703125 C 14.941406 -4.304688 15.414062 -3.90625 15.8125 -3.5 C 16.207031 -3.101562 16.40625 -2.582031 16.40625 -1.9375 C 16.40625 -1.144531 16.128906 -0.632812 15.578125 -0.40625 C 15.035156 -0.1875 14.171875 -0.078125 12.984375 -0.078125 L 6.40625 -0.078125 C 5.164062 -0.078125 4.269531 -0.210938 3.71875 -0.484375 C 3.175781 -0.753906 2.90625 -1.265625 2.90625 -2.015625 C 2.90625 -2.609375 3.101562 -3.101562 3.5 -3.5 C 3.90625 -3.90625 4.378906 -4.304688 4.921875 -4.703125 C 5.472656 -5.097656 5.945312 -5.65625 6.34375 -6.375 C 6.738281 -7.09375 6.9375 -8.078125 6.9375 -9.328125 L 6.9375 -39.53125 C 6.9375 -41.46875 6.773438 -42.957031 6.453125 -44 C 6.128906 -45.039062 5.71875 -45.8125 5.21875 -46.3125 C 4.71875 -46.8125 4.21875 -47.195312 3.71875 -47.46875 C 3.226562 -47.738281 2.820312 -48.046875 2.5 -48.390625 C 2.175781 -48.742188 2.015625 -49.316406 2.015625 -50.109375 C 2.015625 -50.960938 2.335938 -51.523438 2.984375 -51.796875 C 3.628906 -52.066406 4.695312 -52.203125 6.1875 -52.203125 L 12.15625 -52.203125 C 12.945312 -52.203125 13.601562 -52.039062 14.125 -51.71875 C 14.65625 -51.394531 15.191406 -50.960938 15.734375 -50.421875 L 45.5 -19.609375 L 45.5 -42.875 C 45.5 -44.175781 45.285156 -45.171875 44.859375 -45.859375 C 44.429688 -46.554688 43.957031 -47.101562 43.4375 -47.5 C 42.914062 -47.90625 42.441406 -48.304688 42.015625 -48.703125 C 41.597656 -49.097656 41.390625 -49.617188 41.390625 -50.265625 C 41.390625 -51.054688 41.675781 -51.5625 42.25 -51.78125 C 42.820312 -52.007812 43.703125 -52.125 44.890625 -52.125 Z M 44.890625 -52.125 "/></g></g></g><g fill="#545454" fill-opacity="1"><g transform="translate(835.352605, 187.044436)"><g/></g></g><g fill="#545454" fill-opacity="1"><g transform="translate(850.266834, 187.044436)"><g/></g></g><g fill="#545454" fill-opacity="1"><g transform="translate(471.659847, 291.15393)"><g><path d="M 6.40625 -52.203125 L 24.234375 -52.203125 C 29.410156 -52.203125 33.835938 -51.476562 37.515625 -50.03125 C 41.191406 -48.59375 44.195312 -46.664062 46.53125 -44.25 C 48.875 -41.84375 50.601562 -39.132812 51.71875 -36.125 C 52.832031 -33.125 53.390625 -30.082031 53.390625 -27 C 53.390625 -23.320312 52.804688 -19.851562 51.640625 -16.59375 C 50.472656 -13.332031 48.742188 -10.457031 46.453125 -7.96875 C 44.171875 -5.488281 41.3125 -3.539062 37.875 -2.125 C 34.445312 -0.707031 30.5 0 26.03125 0 L 6.40625 0 C 4.914062 0 3.847656 -0.144531 3.203125 -0.4375 C 2.554688 -0.738281 2.234375 -1.289062 2.234375 -2.09375 C 2.234375 -2.882812 2.394531 -3.453125 2.71875 -3.796875 C 3.039062 -4.148438 3.453125 -4.460938 3.953125 -4.734375 C 4.453125 -5.003906 4.945312 -5.390625 5.4375 -5.890625 C 5.9375 -6.390625 6.347656 -7.160156 6.671875 -8.203125 C 6.992188 -9.242188 7.15625 -10.734375 7.15625 -12.671875 L 7.15625 -39.53125 C 7.15625 -41.46875 6.992188 -42.957031 6.671875 -44 C 6.347656 -45.039062 5.9375 -45.8125 5.4375 -46.3125 C 4.945312 -46.8125 4.453125 -47.195312 3.953125 -47.46875 C 3.453125 -47.738281 3.039062 -48.046875 2.71875 -48.390625 C 2.394531 -48.742188 2.234375 -49.316406 2.234375 -50.109375 C 2.234375 -50.960938 2.554688 -51.523438 3.203125 -51.796875 C 3.847656 -52.066406 4.914062 -52.203125 6.40625 -52.203125 Z M 25.203125 -4.40625 C 29.378906 -4.40625 32.722656 -5.195312 35.234375 -6.78125 C 37.742188 -8.375 39.554688 -10.5625 40.671875 -13.34375 C 41.796875 -16.132812 42.359375 -19.269531 42.359375 -22.75 C 42.359375 -27.519531 41.507812 -31.789062 39.8125 -35.5625 C 38.125 -39.34375 35.75 -42.335938 32.6875 -44.546875 C 29.632812 -46.765625 26.070312 -47.875 22 -47.875 C 20.363281 -47.875 19.234375 -47.675781 18.609375 -47.28125 C 17.984375 -46.882812 17.671875 -45.988281 17.671875 -44.59375 L 17.671875 -8.953125 C 17.671875 -8.003906 17.84375 -7.191406 18.1875 -6.515625 C 18.539062 -5.847656 19.25 -5.328125 20.3125 -4.953125 C 21.382812 -4.585938 23.015625 -4.40625 25.203125 -4.40625 Z M 25.203125 -4.40625 "/></g></g></g><g fill="#545454" fill-opacity="1"><g transform="translate(528.184792, 291.15393)"><g><path d="M 13.5 -12.75 L 12.15625 -9.546875 C 11.5625 -8.109375 11.328125 -7.015625 11.453125 -6.265625 C 11.578125 -5.515625 11.847656 -4.953125 12.265625 -4.578125 C 12.691406 -4.210938 13.101562 -3.867188 13.5 -3.546875 C 13.894531 -3.222656 14.09375 -2.710938 14.09375 -2.015625 C 14.09375 -1.222656 13.769531 -0.703125 13.125 -0.453125 C 12.476562 -0.203125 11.660156 -0.078125 10.671875 -0.078125 L 4.03125 -0.078125 C 2.832031 -0.078125 1.882812 -0.203125 1.1875 -0.453125 C 0.5 -0.703125 0.15625 -1.195312 0.15625 -1.9375 C 0.15625 -2.632812 0.363281 -3.171875 0.78125 -3.546875 C 1.207031 -3.921875 1.753906 -4.304688 2.421875 -4.703125 C 3.097656 -5.097656 3.796875 -5.65625 4.515625 -6.375 C 5.234375 -7.09375 5.863281 -8.148438 6.40625 -9.546875 L 19.84375 -42.953125 C 20.289062 -44.148438 20.425781 -45.070312 20.25 -45.71875 C 20.070312 -46.363281 19.742188 -46.882812 19.265625 -47.28125 C 18.796875 -47.675781 18.347656 -48.082031 17.921875 -48.5 C 17.503906 -48.925781 17.296875 -49.488281 17.296875 -50.1875 C 17.296875 -51.53125 18.09375 -52.203125 19.6875 -52.203125 L 28.109375 -52.203125 C 29.453125 -52.203125 30.375 -51.582031 30.875 -50.34375 L 46.90625 -9.84375 C 47.5 -8.300781 48.117188 -7.15625 48.765625 -6.40625 C 49.421875 -5.664062 50.019531 -5.109375 50.5625 -4.734375 C 51.113281 -4.359375 51.5625 -4.007812 51.90625 -3.6875 C 52.25 -3.363281 52.421875 -2.851562 52.421875 -2.15625 C 52.421875 -1.363281 52.125 -0.804688 51.53125 -0.484375 C 50.9375 -0.160156 49.914062 0 48.46875 0 L 36.46875 0 C 35.269531 0 34.375 -0.144531 33.78125 -0.4375 C 33.1875 -0.738281 32.890625 -1.289062 32.890625 -2.09375 C 32.890625 -2.832031 33.125 -3.375 33.59375 -3.71875 C 34.070312 -4.070312 34.570312 -4.445312 35.09375 -4.84375 C 35.613281 -5.238281 35.957031 -5.796875 36.125 -6.515625 C 36.300781 -7.242188 36.117188 -8.351562 35.578125 -9.84375 L 34.453125 -12.53125 C 34.253906 -13.125 34.03125 -13.566406 33.78125 -13.859375 C 33.53125 -14.160156 33.09375 -14.382812 32.46875 -14.53125 C 31.851562 -14.6875 30.882812 -14.773438 29.5625 -14.796875 C 28.25 -14.828125 26.398438 -14.84375 24.015625 -14.84375 C 21.578125 -14.84375 19.6875 -14.828125 18.34375 -14.796875 C 17 -14.773438 16.015625 -14.703125 15.390625 -14.578125 C 14.773438 -14.453125 14.351562 -14.253906 14.125 -13.984375 C 13.90625 -13.710938 13.695312 -13.300781 13.5 -12.75 Z M 24.09375 -19.546875 C 26.625 -19.546875 28.410156 -19.566406 29.453125 -19.609375 C 30.503906 -19.660156 31.078125 -19.832031 31.171875 -20.125 C 31.273438 -20.425781 31.203125 -20.898438 30.953125 -21.546875 L 24.015625 -39.375 L 17.078125 -21.78125 C 16.773438 -21.03125 16.671875 -20.492188 16.765625 -20.171875 C 16.867188 -19.847656 17.457031 -19.660156 18.53125 -19.609375 C 19.601562 -19.566406 21.457031 -19.546875 24.09375 -19.546875 Z M 24.09375 -19.546875 "/></g></g></g><g fill="#545454" fill-opacity="1"><g transform="translate(581.577744, 291.15393)"><g/></g></g><g fill="#545454" fill-opacity="1"><g transform="translate(596.491973, 291.15393)"><g><path d="M 28.78125 0.75 C 23.71875 0.75 19.242188 -0.304688 15.359375 -2.421875 C 11.484375 -4.535156 8.453125 -7.519531 6.265625 -11.375 C 4.078125 -15.226562 2.984375 -19.789062 2.984375 -25.0625 C 2.984375 -28.9375 3.664062 -32.550781 5.03125 -35.90625 C 6.394531 -39.257812 8.304688 -42.21875 10.765625 -44.78125 C 13.234375 -47.34375 16.117188 -49.34375 19.421875 -50.78125 C 22.734375 -52.226562 26.328125 -52.953125 30.203125 -52.953125 C 32.535156 -52.953125 34.410156 -52.738281 35.828125 -52.3125 C 37.242188 -51.894531 38.398438 -51.6875 39.296875 -51.6875 C 40.242188 -51.6875 40.953125 -51.882812 41.421875 -52.28125 C 41.898438 -52.675781 42.5625 -52.875 43.40625 -52.875 C 44.101562 -52.875 44.675781 -52.613281 45.125 -52.09375 C 45.570312 -51.570312 46.019531 -50.515625 46.46875 -48.921875 C 46.863281 -47.628906 47.257812 -46.160156 47.65625 -44.515625 C 48.050781 -42.878906 48.425781 -40.941406 48.78125 -38.703125 C 48.925781 -37.710938 48.882812 -36.929688 48.65625 -36.359375 C 48.4375 -35.785156 47.90625 -35.445312 47.0625 -35.34375 C 46.257812 -35.300781 45.625 -35.5625 45.15625 -36.125 C 44.6875 -36.695312 44.078125 -37.53125 43.328125 -38.625 C 41.640625 -41.113281 39.648438 -43.289062 37.359375 -45.15625 C 35.078125 -47.019531 32.296875 -47.953125 29.015625 -47.953125 C 25.828125 -47.953125 23.085938 -47.144531 20.796875 -45.53125 C 18.515625 -43.914062 16.765625 -41.738281 15.546875 -39 C 14.328125 -36.269531 13.71875 -33.1875 13.71875 -29.75 C 13.71875 -25.476562 14.460938 -21.523438 15.953125 -17.890625 C 17.453125 -14.265625 19.59375 -11.359375 22.375 -9.171875 C 25.15625 -6.984375 28.484375 -5.890625 32.359375 -5.890625 C 35.441406 -5.890625 38.148438 -6.507812 40.484375 -7.75 C 42.828125 -9 44.992188 -10.691406 46.984375 -12.828125 C 47.578125 -13.472656 48.160156 -13.71875 48.734375 -13.5625 C 49.304688 -13.414062 49.703125 -13.03125 49.921875 -12.40625 C 50.148438 -11.789062 50.039062 -11.085938 49.59375 -10.296875 C 48.695312 -8.398438 47.253906 -6.609375 45.265625 -4.921875 C 43.273438 -3.234375 40.890625 -1.863281 38.109375 -0.8125 C 35.328125 0.226562 32.21875 0.75 28.78125 0.75 Z M 28.78125 0.75 "/></g></g></g><g fill="#545454" fill-opacity="1"><g transform="translate(648.617212, 291.15393)"><g><path d="M 37.0625 -21.1875 L 43.78125 -9.390625 C 44.519531 -8.097656 45.25 -7.128906 45.96875 -6.484375 C 46.695312 -5.835938 47.359375 -5.335938 47.953125 -4.984375 C 48.546875 -4.640625 49.015625 -4.269531 49.359375 -3.875 C 49.710938 -3.476562 49.890625 -2.882812 49.890625 -2.09375 C 49.890625 -1.289062 49.601562 -0.738281 49.03125 -0.4375 C 48.457031 -0.144531 47.476562 0 46.09375 0 L 35.125 0 C 33.9375 0 33.039062 -0.160156 32.4375 -0.484375 C 31.84375 -0.804688 31.546875 -1.363281 31.546875 -2.15625 C 31.546875 -2.800781 31.71875 -3.359375 32.0625 -3.828125 C 32.414062 -4.304688 32.773438 -4.78125 33.140625 -5.25 C 33.515625 -5.726562 33.710938 -6.328125 33.734375 -7.046875 C 33.765625 -7.765625 33.484375 -8.671875 32.890625 -9.765625 L 28.71875 -17.234375 C 28.164062 -18.328125 27.503906 -19.054688 26.734375 -19.421875 C 25.960938 -19.796875 24.707031 -20.109375 22.96875 -20.359375 C 21.332031 -20.609375 20.039062 -20.671875 19.09375 -20.546875 C 18.144531 -20.421875 17.671875 -19.785156 17.671875 -18.640625 L 17.671875 -12.453125 C 17.671875 -10.210938 17.90625 -8.570312 18.375 -7.53125 C 18.851562 -6.488281 19.398438 -5.742188 20.015625 -5.296875 C 20.640625 -4.847656 21.1875 -4.425781 21.65625 -4.03125 C 22.132812 -3.632812 22.375 -2.988281 22.375 -2.09375 C 22.375 -1.289062 22.070312 -0.738281 21.46875 -0.4375 C 20.875 -0.144531 19.804688 0 18.265625 0 L 6.40625 0 C 4.914062 0 3.847656 -0.144531 3.203125 -0.4375 C 2.554688 -0.738281 2.234375 -1.289062 2.234375 -2.09375 C 2.234375 -2.988281 2.484375 -3.632812 2.984375 -4.03125 C 3.484375 -4.425781 4.054688 -4.847656 4.703125 -5.296875 C 5.347656 -5.742188 5.914062 -6.488281 6.40625 -7.53125 C 6.90625 -8.570312 7.15625 -10.210938 7.15625 -12.453125 L 7.15625 -39.53125 C 7.15625 -41.46875 6.992188 -42.957031 6.671875 -44 C 6.347656 -45.039062 5.9375 -45.8125 5.4375 -46.3125 C 4.945312 -46.8125 4.453125 -47.195312 3.953125 -47.46875 C 3.453125 -47.738281 3.039062 -48.046875 2.71875 -48.390625 C 2.394531 -48.742188 2.234375 -49.316406 2.234375 -50.109375 C 2.234375 -50.960938 2.554688 -51.523438 3.203125 -51.796875 C 3.847656 -52.066406 4.914062 -52.203125 6.40625 -52.203125 L 22.671875 -52.203125 C 28.035156 -52.203125 32.46875 -51.414062 35.96875 -49.84375 C 39.476562 -48.28125 42.101562 -46.234375 43.84375 -43.703125 C 45.59375 -41.171875 46.46875 -38.410156 46.46875 -35.421875 C 46.46875 -32.046875 45.671875 -29.140625 44.078125 -26.703125 C 42.484375 -24.265625 40.144531 -22.425781 37.0625 -21.1875 Z M 25.0625 -24.53125 C 27.5 -24.28125 29.488281 -24.59375 31.03125 -25.46875 C 32.570312 -26.34375 33.722656 -27.570312 34.484375 -29.15625 C 35.253906 -30.75 35.640625 -32.488281 35.640625 -34.375 C 35.640625 -36.863281 35.09375 -39.113281 34 -41.125 C 32.90625 -43.144531 31.363281 -44.75 29.375 -45.9375 C 27.394531 -47.132812 25.035156 -47.734375 22.296875 -47.734375 C 20.304688 -47.773438 19.035156 -47.660156 18.484375 -47.390625 C 17.941406 -47.117188 17.671875 -46.585938 17.671875 -45.796875 L 17.671875 -28.046875 C 17.671875 -27.242188 18.066406 -26.59375 18.859375 -26.09375 C 19.660156 -25.601562 20.628906 -25.242188 21.765625 -25.015625 C 22.910156 -24.796875 24.007812 -24.632812 25.0625 -24.53125 Z M 25.0625 -24.53125 "/></g></g></g><g fill="#545454" fill-opacity="1"><g transform="translate(700.071325, 291.15393)"><g><path d="M 27.75 0.75 C 13.726562 0.75 6.71875 -7.109375 6.71875 -22.828125 L 6.71875 -39.671875 C 6.71875 -41.910156 6.476562 -43.550781 6 -44.59375 C 5.53125 -45.632812 4.984375 -46.390625 4.359375 -46.859375 C 3.742188 -47.335938 3.195312 -47.765625 2.71875 -48.140625 C 2.25 -48.515625 2.015625 -49.148438 2.015625 -50.046875 C 2.015625 -50.835938 2.3125 -51.378906 2.90625 -51.671875 C 3.5 -51.972656 4.566406 -52.125 6.109375 -52.125 L 18.046875 -52.125 C 19.484375 -52.125 20.523438 -51.972656 21.171875 -51.671875 C 21.828125 -51.378906 22.15625 -50.835938 22.15625 -50.046875 C 22.15625 -49.148438 21.90625 -48.515625 21.40625 -48.140625 C 20.90625 -47.765625 20.34375 -47.335938 19.71875 -46.859375 C 19.101562 -46.390625 18.546875 -45.632812 18.046875 -44.59375 C 17.546875 -43.550781 17.296875 -41.910156 17.296875 -39.671875 L 17.296875 -20.8125 C 17.296875 -15.6875 18.425781 -11.789062 20.6875 -9.125 C 22.957031 -6.46875 26.128906 -5.140625 30.203125 -5.140625 C 34.378906 -5.140625 37.597656 -6.617188 39.859375 -9.578125 C 42.117188 -12.535156 43.25 -16.550781 43.25 -21.625 L 43.1875 -42.875 C 43.1875 -44.175781 42.984375 -45.171875 42.578125 -45.859375 C 42.179688 -46.554688 41.707031 -47.101562 41.15625 -47.5 C 40.613281 -47.90625 40.144531 -48.304688 39.75 -48.703125 C 39.351562 -49.097656 39.15625 -49.617188 39.15625 -50.265625 C 39.15625 -51.054688 39.441406 -51.5625 40.015625 -51.78125 C 40.585938 -52.007812 41.441406 -52.125 42.578125 -52.125 L 49.21875 -52.125 C 50.507812 -52.125 51.414062 -52 51.9375 -51.75 C 52.46875 -51.507812 52.734375 -50.988281 52.734375 -50.1875 C 52.734375 -49.59375 52.53125 -49.097656 52.125 -48.703125 C 51.726562 -48.304688 51.253906 -47.90625 50.703125 -47.5 C 50.160156 -47.101562 49.675781 -46.554688 49.25 -45.859375 C 48.832031 -45.171875 48.625 -44.175781 48.625 -42.875 L 48.625 -23.34375 C 48.570312 -15.09375 46.84375 -9.015625 43.4375 -5.109375 C 40.03125 -1.203125 34.800781 0.75 27.75 0.75 Z M 27.75 0.75 "/></g></g></g><g fill="#545454" fill-opacity="1"><g transform="translate(754.731991, 291.15393)"><g><path d="M 44.75 -14.015625 C 45.394531 -13.816406 45.78125 -13.394531 45.90625 -12.75 C 46.03125 -12.101562 45.992188 -11.285156 45.796875 -10.296875 C 45.546875 -8.753906 45.257812 -7.335938 44.9375 -6.046875 C 44.613281 -4.753906 44.253906 -3.609375 43.859375 -2.609375 C 43.503906 -1.515625 42.925781 -0.804688 42.125 -0.484375 C 41.332031 -0.160156 39.84375 0 37.65625 0 L 5.21875 0 C 4.125 0 3.425781 -0.304688 3.125 -0.921875 C 2.832031 -1.546875 2.984375 -2.332031 3.578125 -3.28125 L 31.390625 -47.5 L 19.171875 -47.5 C 16.734375 -47.5 14.65625 -46.898438 12.9375 -45.703125 C 11.21875 -44.515625 9.640625 -42.753906 8.203125 -40.421875 C 7.054688 -38.578125 5.863281 -37.859375 4.625 -38.265625 C 3.976562 -38.460938 3.59375 -38.867188 3.46875 -39.484375 C 3.34375 -40.109375 3.378906 -40.914062 3.578125 -41.90625 C 3.828125 -43.5 4.125 -44.929688 4.46875 -46.203125 C 4.820312 -47.472656 5.171875 -48.601562 5.515625 -49.59375 C 5.910156 -50.6875 6.503906 -51.394531 7.296875 -51.71875 C 8.097656 -52.039062 9.566406 -52.203125 11.703125 -52.203125 L 42.8125 -52.203125 C 43.945312 -52.203125 44.648438 -51.90625 44.921875 -51.3125 C 45.203125 -50.71875 45.066406 -49.945312 44.515625 -49 L 16.78125 -4.703125 L 30.203125 -4.765625 C 32.691406 -4.765625 34.78125 -5.363281 36.46875 -6.5625 C 38.15625 -7.757812 39.722656 -9.5 41.171875 -11.78125 C 42.304688 -13.625 43.5 -14.367188 44.75 -14.015625 Z M 44.75 -14.015625 "/></g></g></g></svg>